<svg id="Layer_1" data-name="Layer 1" xmlns="http://www.w3.org/2000/svg" viewBox="0 0 712.38 556.1"><title>2</title><path d="M329,292.71c4.62.84,9.31,1.39,13.84,2.56,21.81,5.66,33.92,20.61,39.06,41.79,5,20.6,3.3,41.27-.27,61.85a222.06,222.06,0,0,1-9.1,35c-.33.94-.67,1.87-1,2.8-1,2.93-3.23,3.79-5.93,2.82s-3.11-3.26-2.15-5.83a209.44,209.44,0,0,0,10.07-37.37c3.32-19.12,4.6-38.25-.39-57.32a62.43,62.43,0,0,0-5-13.21c-9.68-18.46-26.91-26.83-48.94-24.63-27.39,2.74-48.31,16.45-65.09,37.35-18.33,22.83-29.07,49.32-36.4,77.35a304.38,304.38,0,0,0-9.6,92c1.23,25.73,5.21,51,16.36,74.53,7.11,15,16.73,28,31.74,36.07,17.93,9.64,36.56,9.09,55.39,3.2,19.2-6,35.13-17.36,49.38-31.18,22.33-21.66,39-47.32,52.68-75.07,1.29-2.62,1.31-5.54,2.06-8.29C421,487.72,431,472,449.93,463.5c10-4.48,20.47-6.11,31.25-2.76a27.06,27.06,0,0,1,12.8,8c2,2.3,3.1,1.88,5.3.28,8.16-5.92,17.05-10.29,27.4-10.54,6-.15,7.7,1.77,6.91,7.68-1.59,11.95-4.31,23.71-5.57,35.73-2.54,24-4.68,48-2.54,72.21a56.32,56.32,0,0,0,3.65,16.69c3.44,8.38,9.1,10.34,17,5.79,5.32-3.07,9-7.81,12.13-12.93,6.83-11.11,11.08-23.32,14.84-35.7,4.74-15.59,8.27-31.48,11.49-47.44a26.41,26.41,0,0,0,.46-5.18c-.08-28.49.63-56.95,2.44-85.38.19-3.1-.58-3.67-3.57-3.12-13.28,2.45-26.63,3.64-40,.79-10.88-2.32-19.82-7.76-26.45-16.8-1.14-1.54-2.06-3.12-1.7-5.14a3.87,3.87,0,0,1,3-3.4c1.55-.38,3.1-.23,4,1.19,10.11,15.51,25.55,18,42.26,17.23a182.56,182.56,0,0,0,19.6-2.48c3.07-.48,3.67-1.8,3.86-4.57,1-15.14,1.82-30.29,3.5-45.37a31.92,31.92,0,0,1,2.2-8.64,16.61,16.61,0,0,1,14.09-10.76,48.75,48.75,0,0,1,16.34.52c4.56,1,5.42,2.94,3.46,7.18-2.82,6.08-3.42,12.67-4.3,19.19-1.34,10-2,20-2.77,30.08-.21,2.69.63,3.07,3.08,2.42,12.86-3.39,25.79-6.51,39.08-7.78,9.73-.92,19.39-.9,28.73,2.55a33.66,33.66,0,0,1,17.55,14.38c2,3.23,1.62,5.8-1.09,7.38-3,1.75-4.43-.17-5.9-2.48-6.91-10.89-17.72-13.92-29.65-14-13.15-.05-25.89,3-38.58,6.13-3.25.81-6.45,2-9.74,2.46-3.54.51-4.58,2.29-4.69,5.65-.52,16.52-1.34,33-1.86,49.57-.84,26.36-1.51,52.72-1.22,79.09.19,17.64.39,35.33,4.38,52.67a43,43,0,0,0,5.72,14.49c5.05,7.61,12.43,8.76,19.35,2.8,7.26-6.25,11.46-14.64,15.33-23.14,9.3-20.45,15.31-42,20.86-63.67,2.4-9.38,4.57-18.82,6.77-28.26.66-2.84,2.22-4.07,5.08-3.45,2.66.58,3.69,2.17,3.08,4.92-6.5,29.23-12.58,58.57-23.94,86.45-5.32,13.06-11.5,25.67-21.42,36-9.29,9.67-20.29,14.18-33.73,10.36-9.51-2.7-15.62-9.4-20.08-17.8-5.74-10.82-8.15-22.61-9.81-34.6-1.41-10.23-2-20.53-2.41-30.94-1.39.51-1.23,1.75-1.5,2.74-4.3,16.24-9.16,32.27-17.34,47.08a69.54,69.54,0,0,1-11.94,16.14c-15,14.75-38.4,13-51-3.86-7.5-10.09-10.28-21.93-12.18-34.05a200.33,200.33,0,0,1-1.89-23.71c-1.55.4-1.52,1.59-1.91,2.4-2,4.16-4.27,8.12-6.61,12.08-15.5,26.22-49.3,17-59.89-.74a53,53,0,0,1-6.66-16.5c-.24-1.16-.58-2.3-1-4-2.66,4.6-4.94,8.7-7.38,12.72-15.1,24.88-33,47.34-56.77,64.6C325.72,629.45,299,638.33,269,636.22c-30.77-2.17-54.15-16.74-70.68-42.52-12.17-19-18.56-40.11-21.47-62.24-6.63-50.36.23-98.93,20.86-145.39,11.35-25.56,27-48.14,49-65.85,19.62-15.79,41.91-25,67.14-26.87,1.09-.08,2.26.07,3.24-.64ZM447.08,532c0,1.37-.07,2.74,0,4.1.46,7.08,1,14.18,4.39,20.6,3.61,6.8,9.58,7.8,15.32,2.69A36.39,36.39,0,0,0,473,552c7.87-12.05,13.11-25.3,17.74-38.83a12.25,12.25,0,0,0,.41-2.92c.68-8.79,1.32-17.58,2.05-26.37a7.16,7.16,0,0,0-.78-4.65c-4.8-7.69-18.23-13.81-27.91-4.05a35.63,35.63,0,0,0-6.22,8.34C450.18,498.63,447.66,515.08,447.08,532Z" transform="translate(-125.11 -292.71)"/><path d="M125.11,787.81c2.09-4,5.35-5.42,9.82-5.06,4,.31,8,0,11.95.1,2.22.08,2.9-1,2.82-2.9s1.24-4-2.09-4.49c-4.79-.7-9.53-1.77-14.29-2.7-4.47-.89-6.62-3.67-6.1-7.86.46-3.81,3.35-6,7.88-5.43s8.84,1.38,13.24,2.2c2.42.46,3.43-.1,3.81-2.84,2.83-21,6.48-41.76,14.17-61.6a72.77,72.77,0,0,1,10.07-18.64c9.23-11.87,21.51-14.37,34.76-7.13,7.19,3.93,12.45,9.82,16.92,16.52a102.7,102.7,0,0,1,8.77,16.42c.8,1.87,1.81,2.64,3.88,2.59,5.6-.13,11.21-.16,16.81,0,2.42.08,3.45-1,4.37-3,4.88-10.86,11-20.9,20.17-28.77,7.68-6.6,16.48-8.78,26.42-7.06,7.59,1.32,13.28,5.37,17.58,11.54,7.05,10.09,10.37,21.7,13.25,33.43,3.54,14.37,5.73,29,7.69,43.66.84,6.28-.33,5.49,6.2,4.49,3.93-.6,7.84-1.41,11.79-1.81,4.28-.43,7.05,1.75,7.5,5.46.48,4.05-1.58,6.92-5.76,7.77-4.75,1-9.52,1.84-14.29,2.71-1.93.35-3.67.58-3,3.4.52,2.12.05,4.4,3.64,4.1,4.58-.37,9.21-.13,13.81-.07s7.54,2.82,7.45,7c-.08,4-2.89,6.64-7.36,6.71-4.11.06-8.23.21-12.32,0-3-.19-3.5,1-3.28,3.65,1,11.77,1.69,23.57,2.64,35.34.58,7.24-3.64,12.78-10.41,13.31-6.27.49-11.33-4.34-11.63-11.34-1-23.85-2.19-47.7-5.17-71.41-2.59-20.6-5.65-41.13-12.65-60.81-1.8-5.05-3.8-10-7.49-14.07-3.06-3.34-5.51-3.51-9.09-.7s-5.85,6.43-8.12,10.15a167.5,167.5,0,0,0-11.25,23.09C276,729,268.58,732.11,263.7,729c-2.6-1.65-5.07-1.8-7.72-1.89-3.73-.11-7.47,0-11.2.14a4.52,4.52,0,0,0-2.49.56c-4.12,3.23-8.85,1.89-13.32,1.68-3.28-.15-5.11-2.7-6.2-5.72a114.51,114.51,0,0,0-11-23.17c-2.57-4-5.5-7.72-9.62-10.26-5.31-3.26-8.7-2.56-11.89,2.76-4.93,8.23-7,17.51-9,26.73-5.74,26.53-8.72,53.48-11.31,80.46-1.22,12.74-2.07,25.52-3.14,38.29-.5,6.09-4.8,10.26-10.35,10.16A10.21,10.21,0,0,1,146.32,838c.29-12.55.56-25.12,1.77-37.62.29-3-.43-4-3.47-3.76-3.22.25-6.48-.11-9.7.09-4.41.28-7.76-1.15-9.81-5.18Z" transform="translate(-125.11 -292.71)"/><path d="M520.08,776.43c-6.58,7.67-14,13.09-23.27,15.67-1.72.48-1.69,2-2.12,3.2a63.33,63.33,0,0,1-16.26,25.57c-24.48,22.91-62.29,16.65-78.94-13-5.91-10.51-8.7-21.9-9.54-33.8-1.24-17.46.16-34.57,7.77-50.66,8-16.91,20.32-28.71,39.3-32.26,8.39-1.57,16.81-1.83,25.16.34a19.7,19.7,0,0,1,3.48,1.3c1.93.92,2.92,2.53,2.09,4.57-.74,1.85-2.36,2.18-4.35,1.78-3.29-.66-6.63-1.11-10-1.48-10-1.1-17.76,2.6-23.33,10.9-5.46,8.12-8.08,17.33-9.57,26.83-3.2,20.39-2.83,40.65,3.26,60.54C426,803.14,429,810,434,815.7c6.75,7.73,14.74,8.89,23.18,3s13.49-14.44,17.2-23.86c.61-1.55.26-2.3-1.42-2.58-19.88-3.31-31.45-20.63-33.2-43.56-.74-9.57-.61-19.17,2.86-28.37a47.53,47.53,0,0,1,4.34-8.64c10.53-16.69,30.16-13,39.21-2.59,8.16,9.38,11.75,20.6,13.1,32.69a137.31,137.31,0,0,1-.78,37.55c-.15.95-.23,1.92-.41,3.38,11.56-5,18.71-13.15,21.45-25,1.58-6.83,1.06-13.85,1.41-20.79a149.27,149.27,0,0,1,5.29-33.81,27.36,27.36,0,0,1,3.61-8.13c3.8-5.48,9.33-6.58,14.93-2.85,6.21,4.13,8,10.47,8.35,17.45.52,11.13-1.59,22-2.61,33.07-.3,3.21-.6,6.42-.93,9.88,1.67-1.51,1.59-3.46,2.09-5.12,3-9.9,6.21-19.72,11.89-28.44,6-9.17,13.4-16.74,24.52-19.42,9.16-2.21,16,.59,21.19,8.52s7.17,17.11,8.76,26.33c1.25,7.24,1.66,14.56,2.86,22,1.07-3.82,2.11-7.65,3.22-11.46,4.21-14.49,9.56-28.5,17.79-41.27a47.94,47.94,0,0,1,11.58-13c10.42-7.72,22.89-5,29.2,6.31,4,7.15,5.06,15,5.57,23,.74,11.55.78,23.12.75,34.69,0,16.42,0,32.84,0,49.27a52.67,52.67,0,0,0,1.58,13.3c.72,2.76,1.49,5.84,4.74,6.59,3.56.83,5.83-1.65,7.72-4.19,4.42-6,6.9-12.9,9.16-19.88a175.25,175.25,0,0,0,8.77-53.5c0-3,1-4.75,4.29-4.7s4,2.1,3.9,4.71c-.71,19.42-2.4,38.7-8,57.44a107.58,107.58,0,0,1-9.94,24,45.06,45.06,0,0,1-7.51,9.71c-11.65,11.21-26.83,9-34.62-5.23-3.43-6.24-4.4-13.18-5.27-20.07a233.49,233.49,0,0,1-1.64-31.28c.16-17.67-.29-35.32-.77-53a31.2,31.2,0,0,0-1.5-9.55c-1.87-5.36-5.75-6.12-9.44-1.85A45.69,45.69,0,0,0,644,727.29c-8.75,19-14.3,38.92-18.38,59.31-3,15.11-5.79,30.28-7.14,45.66a26.09,26.09,0,0,1-1.07,5.47c-2,6.24-7.4,8.45-12.91,4.9-6.54-4.21-10.43-10.21-10.51-18.25-.18-16.79-.31-33.58-1.21-50.35-.67-12.42-1.56-24.82-4.51-37a25.64,25.64,0,0,0-3.85-9.23c-2.36-3.27-5.1-3.69-8.32-1.27a22.65,22.65,0,0,0-5.94,7.58c-6.17,11.22-9.42,23.49-12.53,35.77-4.64,18.33-7.8,37-10.6,55.63-1,6.67-3.91,12.3-9.47,16.32-6.41,4.63-12.59,2.4-14.49-5.2-1.09-4.38-.88-8.9-1.06-13.35-.62-15-1-30.08-1.57-45.11A14.57,14.57,0,0,0,520.08,776.43ZM479.4,758.71a133,133,0,0,0-.95-18.61c-.93-7-2.07-14.08-6.18-20.11-2.36-3.45-5.37-6.44-10-6.11s-6.92,3.93-8.74,7.73a16.83,16.83,0,0,0-1.29,3.49c-3.95,16.95-2,33.07,7.16,48,3.32,5.4,8.34,8.75,14.35,10.7,2.42.78,3.73.73,4.17-2.47A157.93,157.93,0,0,0,479.4,758.71Z" transform="translate(-125.11 -292.71)"/><path d="M770.16,804.91c-15.28,0-21.36-9.94-14.72-22.84,4.83-9.39,13.56-13.34,23.21-15.84A18.83,18.83,0,0,1,795.79,770c9.71,7.61,15.81,17.12,15.08,29.93-.38,6.71-4.63,10.56-11.39,10.81a20.72,20.72,0,0,1-12.77-3.32A16.11,16.11,0,0,0,773,804.74,11.55,11.55,0,0,1,770.16,804.91Z" transform="translate(-125.11 -292.71)"/><path d="M795.37,747c.4-6,1.68-10.41,4.94-14,3.1-3.37,6.72-5.66,11.54-4.26s6.67,5.18,7.37,9.77a19.1,19.1,0,0,1-3.31,13.79c-3.3,4.95-8.59,7.26-13,5.88S795.23,751.58,795.37,747Z" transform="translate(-125.11 -292.71)"/><path d="M765,758.31c-.06,5.86-2.89,10.66-7.1,12-4.64,1.5-10-.76-13.34-5.85-3.49-5.26-4.55-11-2.45-17,2.31-6.62,8.83-8.75,14.79-5.05C761.82,745.43,765.1,751.88,765,758.31Z" transform="translate(-125.11 -292.71)"/><path d="M828,754.09a8.91,8.91,0,0,1,8.9,6.56c2.63,8.55-4.06,19.93-12.82,21.8-6.19,1.32-10.9-1.77-12.08-7.94C810.2,765.05,818.83,754,828,754.09Z" transform="translate(-125.11 -292.71)"/><path d="M789.73,737.49c-.25,4.54-1.23,8.83-4.57,12.24a9.56,9.56,0,0,1-14.46-.27c-5.38-5.91-5.53-17.39-.31-23.48,4.52-5.27,11.39-5.12,15.68.35C788.64,729.6,789.51,733.42,789.73,737.49Z" transform="translate(-125.11 -292.71)"/><path d="M214.67,765.13c0,7.65-4.57,13.54-10.46,13.49s-10.35-6-10.32-13.66c0-8.07,4.94-13.75,11.41-13.17C210.69,752.27,214.67,757.93,214.67,765.13Z" transform="translate(-125.11 -292.71)"/><path d="M303.09,765.1a14.2,14.2,0,0,1-2.9,9.61c-4,5.31-11,5.33-14.82-.12s-3.94-11.12-1.2-16.94c1.7-3.59,4.39-5.94,8.69-5.9s6.81,2.48,8.68,6A14.53,14.53,0,0,1,303.09,765.1Z" transform="translate(-125.11 -292.71)"/><path d="M239.47,770.43c-.21-1.94,1.13-2.92,2.77-3.3a25.91,25.91,0,0,1,15.05.51c3.16,1.14,3.62,3,1.61,5.77s-4.88,4.56-7.74,6.31a3.55,3.55,0,0,1-1.78.46C246.07,780.16,239.56,773.79,239.47,770.43Z" transform="translate(-125.11 -292.71)"/></svg>